<svg width="48" height="48" viewBox="0 0 48 48" fill="none" xmlns="http://www.w3.org/2000/svg">
<path d="M24 48C10.7736 48 0 37.2264 0 24C0 10.7736 10.7736 -1.90735e-06 24 -1.90735e-06C37.2264 -1.90735e-06 48 10.7736 48 24C48 37.2264 37.2264 48 24 48ZM24 43.2C34.6323 43.2 43.2 34.6323 43.2 24C43.2 19.5526 41.6862 15.4787 39.1641 12.2297L12.2297 39.1641C15.4787 41.6862 19.5526 43.2 24 43.2ZM8.83594 35.7703L35.7703 8.83594C32.5213 6.31377 28.4474 4.8 24 4.8C13.3677 4.8 4.8 13.3677 4.8 24C4.8 28.4474 6.31377 32.5213 8.83594 35.7703Z" fill="#703A1C"/>
<path d="M27.2438 33.3758C29.6958 32.4541 31.7708 30.6434 33.1108 28.256C33.8108 29.3201 34.7776 30.1496 35.8992 30.6484C36.2383 30.8024 36.6076 30.864 36.9742 30.8277C37.3409 30.7915 37.6934 30.6584 38.0005 30.4405C38.3075 30.2225 38.5594 29.9265 38.7339 29.5787C38.9083 29.2309 38.9997 28.8423 39 28.4474V22.2032C38.9997 21.8083 38.9083 21.4197 38.7339 21.0719C38.5594 20.7241 38.3075 20.4281 38.0005 20.2101C37.6934 19.9922 37.3409 19.8591 36.9742 19.8228C36.6076 19.7866 36.2383 19.8482 35.8992 20.0022C34.7744 20.4952 33.8062 21.3259 33.1108 22.3946C30.88 18.6624 24.8123 15.7676 18.7223 15.7676C16.3907 15.8239 14.1724 16.8569 12.5421 18.6455C10.9119 20.4341 9.99941 22.8361 10 25.3373C10.144 27.8378 11.1965 30.1781 12.9316 31.8555C14.6667 33.533 16.946 34.4138 19.28 34.3088C19.9492 34.3088 21.02 34.3088 21.6892 34.3088" stroke="#703A1C" stroke-width="2" stroke-linecap="round" stroke-linejoin="round"/>
<path d="M17.8076 24.117C18.4236 24.117 18.923 23.5815 18.923 22.9208C18.923 22.2602 18.4236 21.7246 17.8076 21.7246C17.1916 21.7246 16.6922 22.2602 16.6922 22.9208C16.6922 23.5815 17.1916 24.117 17.8076 24.117Z" stroke="#703A1C" stroke-width="2" stroke-linecap="round" stroke-linejoin="round"/>
<path d="M16.09 16.1741C17.8077 13.3272 21.8454 10.1213 30.7908 11.2218C29.8432 13.9781 29.8432 17.0065 30.7908 19.7628" stroke="#703A1C" stroke-width="2" stroke-linecap="round" stroke-linejoin="round"/>
<path d="M19.2354 29.7152C19.6359 31.8408 20.7898 33.7168 22.4541 34.9484C24.1184 36.18 26.1633 36.6711 28.1584 36.3183L25.9054 28.4473" stroke="#703A1C" stroke-width="2" stroke-linecap="round" stroke-linejoin="round"/>
</svg>
