<svg width="48" height="48" viewBox="0 0 48 48" fill="none" xmlns="http://www.w3.org/2000/svg">
<path d="M15.58 24.3364C17.3789 25.7108 18.5544 27.7468 18.8452 29.9919M14.5629 25.3278L14.9397 25.6011C16.3447 26.6198 17.2501 28.188 17.4298 29.9141L17.5331 30.9063C17.6159 31.701 18.3273 32.2782 19.122 32.1954C19.2072 32.1866 19.2915 32.1701 19.3737 32.1464C20.3467 31.8653 20.9974 30.9506 20.9439 29.9393L20.7665 26.5863C20.6785 24.922 19.7971 23.4012 18.3969 22.4974L18.0676 22.2848C16.9403 21.5572 15.4689 21.6566 14.4497 22.5293C13.7016 23.17 13.6145 24.2959 14.2551 25.044C14.3462 25.1504 14.4495 25.2456 14.5629 25.3278Z" stroke="#703A1C" stroke-linecap="round"/>
<path d="M26.6194 16.1253C25.2375 17.9185 24.6291 20.1893 24.9292 22.4332M27.8585 16.8197L27.5652 17.1812C26.4718 18.5288 26.0031 20.2779 26.2762 21.9917L26.4332 22.9768C26.559 23.7659 26.0212 24.5075 25.2321 24.6333C25.1476 24.6468 25.0619 24.6527 24.9763 24.6511C23.9638 24.6313 23.0985 23.9162 22.8884 22.9256L22.1919 19.6409C21.8462 18.0106 22.3039 16.3134 23.4225 15.0781L23.6856 14.7875C24.5862 13.7929 26.0332 13.5081 27.2434 14.0873C28.1319 14.5125 28.5075 15.5774 28.0823 16.4659C28.0218 16.5922 27.9467 16.711 27.8585 16.8197Z" stroke="#703A1C" stroke-linecap="round"/>
<path d="M27.0508 29.2375C29.1442 28.3755 30.8065 26.7132 31.6685 24.6198M26.325 28.0166L26.7597 27.8502C28.3805 27.2299 29.6609 25.9494 30.2813 24.3287L30.6378 23.3971C30.9235 22.6508 31.76 22.2774 32.5062 22.563C32.5862 22.5937 32.6634 22.6313 32.7367 22.6756C33.6037 23.1989 33.9955 24.2508 33.6821 25.2138L32.6429 28.4067C32.1272 29.9914 30.8822 31.2323 29.2958 31.7429L28.9227 31.863C27.6455 32.2741 26.2499 31.7972 25.4914 30.6905C24.9346 29.878 25.1418 28.768 25.9543 28.2111C26.0698 28.132 26.1942 28.0667 26.325 28.0166Z" stroke="#703A1C" stroke-linecap="round"/>
<path d="M24 48C10.7736 48 0 37.2264 0 24C0 10.7736 10.7736 -1.90735e-06 24 -1.90735e-06C37.2264 -1.90735e-06 48 10.7736 48 24C48 37.2264 37.2264 48 24 48ZM24 43.2C34.6323 43.2 43.2 34.6323 43.2 24C43.2 19.5526 41.6862 15.4787 39.1641 12.2297L12.2297 39.1641C15.4787 41.6862 19.5526 43.2 24 43.2ZM8.83594 35.7703L35.7703 8.83594C32.5213 6.31377 28.4474 4.8 24 4.8C13.3677 4.8 4.8 13.3677 4.8 24C4.8 28.4474 6.31377 32.5213 8.83594 35.7703Z" fill="#703A1C"/>
</svg>
