<svg width="35" height="41" viewBox="0 0 35 41" fill="none" xmlns="http://www.w3.org/2000/svg">
<path d="M7.99603 25.4992C8.73975 24.4189 9.4995 23.3487 10.2233 22.2571C11.5948 20.1884 12.9699 18.1208 14.2832 16.0185C14.5134 15.6502 14.5355 15.1084 14.5037 14.6574C14.4125 13.4042 14.1777 12.1589 14.1145 10.9058C13.9477 7.62692 15.3359 5.03962 18.1125 3.12092C20.6889 1.34065 23.5133 0.187979 26.755 0.288543C30.9761 0.419615 33.804 3.00301 33.9925 7.13691C34.1693 11.0192 32.5099 14.1888 29.4068 16.6952C28.4206 17.5341 27.2924 18.2078 26.0699 18.6876C24.4396 19.2855 22.7837 19.8159 21.1535 20.4125C20.8368 20.5375 20.5654 20.748 20.3727 21.0181C18.2838 24.0219 16.3068 27.1002 14.1212 30.0377C12.0193 32.8632 9.72494 35.5601 7.47435 38.2826C6.97794 38.8612 6.40043 39.3722 5.75812 39.8012C4.2452 40.8429 1.85281 40.3093 0.891032 38.7843C0.694967 38.4772 0.573206 38.1324 0.534405 37.775C0.495603 37.4176 0.540859 37.0564 0.666977 36.7176C0.908204 35.9357 1.25057 35.1851 1.68593 34.4836C3.72206 31.4471 5.81746 28.4463 7.89197 25.433L7.99603 25.4992ZM3.53692 38.0247C4.42002 37.8394 4.62063 37.7482 5.14068 37.1393C5.9508 36.1912 6.7756 35.249 7.50761 34.247C9.76881 31.1514 12.0141 28.0444 14.2144 24.9093C15.2844 23.3843 16.2144 21.7708 17.2556 20.2268C18.3792 18.5608 19.7993 17.227 21.8957 16.6918C22.6178 16.5074 23.3066 16.2095 24.0212 15.9964C25.6567 15.5099 27.0198 14.6315 28.266 13.5226C29.2089 12.7117 29.9636 11.7223 30.4816 10.6176C30.9997 9.51289 31.2698 8.31735 31.2745 7.10747C31.326 4.71304 29.8468 3.03694 27.431 2.69946C26.3678 2.54337 25.2812 2.62343 24.2558 2.93329C22.313 3.52877 20.5538 4.57019 19.1333 5.9658C18.518 6.53583 18.0293 7.2178 17.6961 7.9712C17.363 8.72462 17.1923 9.53413 17.1941 10.3516C17.1828 11.099 17.2134 11.8464 17.2858 12.5906C17.4568 14.2341 17.5934 15.8595 16.3837 17.2556C16.3656 17.2849 16.3523 17.3165 16.344 17.3496C15.2512 19.8992 13.9085 22.3449 12.3335 24.6545C9.96835 28.2175 7.58496 31.7694 5.22027 35.3325C4.66981 36.161 4.16518 37.0175 3.53692 38.0247Z" fill="#703A1C"/>
</svg>
